<?xml version="1.0" standalone="yes"?>
<svg xmlns="http://www.w3.org/2000/svg" width="200" height="147">
<path style="fill:#fefdfe; stroke:none;" d="M0 0L0 147L200 147L200 0L0 0z"/>
<path style="fill:#aebab9; stroke:none;" d="M105 10L106 10C109.999 6.22472 114.781 7 120 7C114.969 4.88899 108.001 5.10757 105 10z"/>
<path style="fill:#fd4b87; stroke:none;" d="M107 7C108.101 19.6294 112.99 35.3579 118 47C128.366 39.0486 142.307 20.2001 147 8L107 7z"/>
<path style="fill:#aebab9; stroke:none;" d="M134 7L134 8L147 8L134 7z"/>
<path style="fill:#fd4b87; stroke:none;" d="M103 8C94.8988 20.0086 80.3245 34.8528 77 49L116 48L105 8L103 8z"/>
<path style="fill:#fefdfe; stroke:none;" d="M106 9L108 19L109 19L106 9z"/>
<path style="fill:#aebab9; stroke:none;" d="M101 10L102 11L101 10M146 10L147 11L146 10M107 11L108 12L107 11M145 11L146 12L145 11M106.333 12.6667L106.667 13.3333L106.333 12.6667M99 13L100 14L99 13M144 13L145 14L144 13M108.333 14.6667L108.667 15.3333L108.333 14.6667M143 14L144 15L143 14M142 15L143 16L142 15M97 16L98 17L97 16M107.333 16.6667L107.667 17.3333L107.333 16.6667M96 17L97 18L96 17M141 17L142 18L141 17M68 18L66 24L67 24L68 18M109 18L108 21L109 18M140 18L141 19L140 18z"/>
<path style="fill:#fd4b87; stroke:none;" d="M64 19L53 34L68 33L64 19z"/>
<path style="fill:#aebab9; stroke:none;" d="M65 19L66 20L65 19z"/>
<path style="fill:#fd4b87; stroke:none;" d="M68 19L74 47L75 47L86 31L86 30L68 19z"/>
<path style="fill:#aebab9; stroke:none;" d="M95 19L96 20L95 19M139 19L140 20L139 19M71 20L72 21L71 20M94 20L95 21L94 20z"/>
<path style="fill:#fefdfe; stroke:none;" d="M109 20L115 44L116 44L109 20z"/>
<path style="fill:#aebab9; stroke:none;" d="M62 21L63 22L62 21M73 21L74 22L73 21M110.333 21.6667L110.667 22.3333L110.333 21.6667M138 21L139 22L138 21M61 22L62 23L61 22z"/>
<path style="fill:#fefdfe; stroke:none;" d="M67 22L67 27L68 27L67 22z"/>
<path style="fill:#aebab9; stroke:none;" d="M74 22L75 23L74 22M93 22L94 23L93 22M137 22L138 23L137 22M60 23L61 24L60 23M76 23L77 24L76 23M92 23L93 24L92 23M109.333 23.6667L109.667 24.3333L109.333 23.6667M136 23L137 24L136 23M78 24L79 25L78 24M68.3333 25.6667L68.6667 26.3333L68.3333 25.6667M79 25L80 26L79 25M91 25L92 26L91 25M111.333 25.6667L111.667 26.3333L111.333 25.6667M135 25L136 26L135 25M81 26L82 27L81 26M90 26L91 27L90 26M134 26L135 27L134 26M57 27L58 28L57 27M67.3333 27.6667L67.6667 28.3333L67.3333 27.6667M82 27L83 28L82 27M110 27L111 28L110 27M56 28L57 29L56 28M84 28L85 29L84 28M55 29L56 30L55 29M69.3333 29.6667L69.6667 30.3333L69.3333 29.6667M85 29L86 30L85 29M88 29L89 30L88 29M112 29L113 30L112 29M132 29L133 30L132 29M111.333 30.6667L111.667 31.3333L111.333 30.6667M131 30L132 31L131 30M84 32L84 33L87 33L84 32M53 32L54 33L53 32z"/>
<path style="fill:#fefdfe; stroke:none;" d="M85 32L76 47L77 47L85 32z"/>
<path style="fill:#aebab9; stroke:none;" d="M113.333 32.6667L113.667 33.3333L113.333 32.6667M52 33L53 34L52 33M61 33L61 34L65 34L61 33M129 33L130 34L129 33M53 34L53 35L58 35L53 34M70.3333 34.6667L70.6667 35.3333L70.3333 34.6667M83 34L84 35L83 34M112 34L113 35L112 34M128 34L129 35L128 34M82 35L83 36L82 35M84 35L85 36L84 35M114 36L115 37L114 36M81 37L82 38L81 37M113.333 37.6667L113.667 38.3333L113.333 37.6667M126 37L127 38L126 37M71.3333 38.6667L71.6667 39.3333L71.3333 38.6667M80 38L81 39L80 38M82 38L83 39L82 38M125 38L126 39L125 38M81 39L82 40L81 39M115.333 39.6667L115.667 40.3333L115.333 39.6667M79 40L80 41L79 40M78 41L79 42L78 41M80 41L81 42L80 41M114.333 41.6667L114.667 42.3333L114.333 41.6667M123 41L124 42L123 41M79 42L80 43L79 42M122 42L123 43L122 42M72.3333 43.6667L72.6667 44.3333L72.3333 43.6667M77 43L78 44L77 43M116 43L115 46L116 43M76 44L77 45L76 44M78 44L79 45L78 44M77 45L78 46L77 45M120 45L121 46L120 45M73 46L74 47L73 46M75 46L76 47L75 46M117 46L118 47L117 46M119 46L120 47L119 46M76.3333 47.6667L76.6667 48.3333L76.3333 47.6667M118 47L119 48L118 47M98 48L98 49L116 49L98 48M76 51L80 55L77 51L108 51C100.49 47.8488 83.7672 48.7041 76 51z"/>
<path style="fill:#fd4b87; stroke:none;" d="M77 51C82.7432 58.4873 92.387 63.6518 100 69.1505C102.005 70.5984 105.683 74.2714 108.437 72.8279C113.034 70.4178 114.613 54.7333 115 50L77 51z"/>
<path style="fill:#aebab9; stroke:none;" d="M115 51L116 52L115 51z"/>
<path style="fill:#fd4b87; stroke:none;" d="M117 52C115.332 60.0596 107.966 73.9158 109.904 81.9097C111.385 88.0223 124.541 95.6922 130 98C129.466 86.3233 124.715 60.832 117 52z"/>
<path style="fill:#aebab9; stroke:none;" d="M118 52L119 53L118 52M116.333 53.6667L116.667 54.3333L116.333 53.6667M114.333 54.6667L114.667 55.3333L114.333 54.6667M119.333 54.6667L119.667 55.3333L119.333 54.6667M81 55L82 56L81 55M82 56L83 57L82 56M115.333 57.6667L115.667 58.3333L115.333 57.6667M85 58L86 59L85 58M113.333 58.6667L113.667 59.3333L113.333 58.6667M120.333 58.6667L120.667 59.3333L120.333 58.6667M86 59L87 60L86 59M88 60L89 61L88 60M89 61L90 62L89 61M114 61L115 62L114 61M121.333 61.6667L121.667 62.3333L121.333 61.6667M90 62L91 63L90 62M112.333 62.6667L112.667 63.3333L112.333 62.6667M92 63L93 64L92 63M93 64L94 65L93 64M113.333 64.6667L113.667 65.3333L113.333 64.6667M122.333 65.6667L122.667 66.3333L122.333 65.6667M96 66L97 67L96 66M111 66L112 67L111 66M97 67L98 68L97 67M99 68L100 69L99 68M112.333 68.6667L112.667 69.3333L112.333 68.6667M100 69L101 70L100 69M110.333 69.6667L110.667 70.3333L110.333 69.6667M123.333 69.6667L123.667 70.3333L123.333 69.6667M101 70L102 71L101 70M103 71L104 72L103 71M104 72L105 73L104 72M111.333 72.6667L111.667 73.3333L111.333 72.6667M109 73L110 74L109 73M124 73L125 74L124 73M107.667 74.3333L108.333 74.6667L107.667 74.3333M110 76L111 77L110 76M125.333 76.6667L125.667 77.3333L125.333 76.6667M109.333 79.6667L109.667 80.3333L109.333 79.6667M126.333 80.6667L126.667 81.3333L126.333 80.6667M109 83L110 84L109 83M127.333 84.6667L127.667 85.3333L127.333 84.6667M112 85L113 86L112 85M113 86L114 87L113 86M114 87L115 88L114 87M116 88L117 89L116 88M128.333 88.6667L128.667 89.3333L128.333 88.6667M117 89L118 90L117 89M118 90L119 91L118 90M121 92L122 93L121 92M129 92L130 93L129 92M122 93L123 94L122 93M125 95L126 96L125 95M130 95L130 98L131 98L130 95M126 96L127 97L126 96M129 98L130 99L129 98M74 105L74 106C78.3906 110.3 77 117.232 77 123L78 123C78 117.028 79.9674 108.291 74 105M171 105L172 106L171 105M71 106L72 107L71 106z"/>
<path style="fill:#677c7b; stroke:none;" d="M72 106L71 108L72 106z"/>
<path style="fill:#2c4a48; stroke:none;" d="M72 107L75 108L73 131L78 131C74.4234 120.629 83.326 129.126 87 131C83.6305 123.746 83.9743 122.615 86 115L82 115L82 116C83.1172 120.01 79.4238 121.825 76 123L75 106L72 107z"/>
<path style="fill:#677c7b; stroke:none;" d="M75 106L76 107L75 106z"/>
<path style="fill:#aebab9; stroke:none;" d="M167 106C169.852 112.373 172.681 122.821 168 129L168 130C174.042 126.083 172.031 110.236 167 106z"/>
<path style="fill:#677c7b; stroke:none;" d="M168 106L168 108L170 106L168 106z"/>
<path style="fill:#2c4a48; stroke:none;" d="M169 107C172.645 113.555 171.853 124.268 169 131L175 131L172 106L169 107z"/>
<path style="fill:#677c7b; stroke:none;" d="M172 106L173 107L172 106z"/>
<path style="fill:#aebab9; stroke:none;" d="M173 106L173 129L174 129L173 106z"/>
<path style="fill:#677c7b; stroke:none;" d="M64.6667 107.333L65.3333 107.667L64.6667 107.333z"/>
<path style="fill:#aebab9; stroke:none;" d="M66 107L66 111L67 111L66 107z"/>
<path style="fill:#677c7b; stroke:none;" d="M76 107L76 123L77 123L76 107z"/>
<path style="fill:#aebab9; stroke:none;" d="M160.333 107.667L160.667 108.333L160.333 107.667z"/>
<path style="fill:#677c7b; stroke:none;" d="M161 107L161 108L163 110L160 109L160 110L163 111L164 110L161 107z"/>
<path style="fill:#aebab9; stroke:none;" d="M163 107L164 108L163 107M8 109L8 110L11 111L11 110L9 110L9 109L14 109L8 109z"/>
<path style="fill:#677c7b; stroke:none;" d="M14 108L14 109L20 109L14 108z"/>
<path style="fill:#aebab9; stroke:none;" d="M20.6667 108.333L21.3333 108.667L20.6667 108.333M63 108L65 111L63 108z"/>
<path style="fill:#2c4a48; stroke:none;" d="M64 108L64 110L67 110L67 108L64 108z"/>
<path style="fill:#aebab9; stroke:none;" d="M72 108C73.7342 115.284 73.942 124.057 71 131L78 132L78 131L72 131C74.5538 126.215 76.4662 111.903 72 108z"/>
<path style="fill:#677c7b; stroke:none;" d="M74 108L74 129L75 129L74 108z"/>
<path style="fill:#2c4a48; stroke:none;" d="M161 108L161 110L163 110L163 108L161 108z"/>
<path style="fill:#aebab9; stroke:none;" d="M164.333 108.667L164.667 109.333L164.333 108.667z"/>
<path style="fill:#677c7b; stroke:none;" d="M170 108L171 109L170 108M9 109L10 110L9 109z"/>
<path style="fill:#2c4a48; stroke:none;" d="M10 109L10 110C13.9538 115.219 12.4199 125.289 10 131L18 131L18 130C14.5017 128.072 14.1254 125.878 14 122C19.6102 121.984 32.7723 116.296 22.7716 110.179C19.3278 108.072 13.8693 109 10 109z"/>
<path style="fill:#677c7b; stroke:none;" d="M22 109L23 110L22 109z"/>
<path style="fill:#aebab9; stroke:none;" d="M23 109L24 110L23 109z"/>
<path style="fill:#677c7b; stroke:none;" d="M11.3333 110.667L11.6667 111.333L11.3333 110.667M14 110L14 111L17 111L14 110z"/>
<path style="fill:#aebab9; stroke:none;" d="M17 110L17 111L22 114C22.078 110.891 19.7985 110.438 17 110z"/>
<path style="fill:#677c7b; stroke:none;" d="M21 110L22 111L21 110z"/>
<path style="fill:#aebab9; stroke:none;" d="M24 110L25 111L24 110z"/>
<path style="fill:#677c7b; stroke:none;" d="M65 110L66 111L65 110z"/>
<path style="fill:#aebab9; stroke:none;" d="M163 110L164 111L163 110M14 111C14.0042 116.472 13.6359 120.504 20 121L20 120L15 120L14 111z"/>
<path style="fill:#fefdfe; stroke:none;" d="M15 111L15 120C24.1277 119.701 24.1277 111.299 15 111z"/>
<path style="fill:#677c7b; stroke:none;" d="M22 111L23 112L22 111z"/>
<path style="fill:#aebab9; stroke:none;" d="M25 111L26 114L27 114L25 111M103 111L102 115L103 115L103 111z"/>
<path style="fill:#677c7b; stroke:none;" d="M104 111L103 114L104 111z"/>
<path style="fill:#aebab9; stroke:none;" d="M105 111L105 115L106 115L105 111M149 111L148 115L149 115L149 111z"/>
<path style="fill:#677c7b; stroke:none;" d="M150 111L149 114L150 111z"/>
<path style="fill:#aebab9; stroke:none;" d="M151 111L151 115L152 115L151 111M11 112L11 120L12 120L11 112z"/>
<path style="fill:#677c7b; stroke:none;" d="M25 112L26 113L25 112M23 113L23 118L24 118L23 113z"/>
<path style="fill:#2c4a48; stroke:none;" d="M104 113L101 116C103.952 121.307 100.592 131.414 109 130L109 129L105 129L105 117L109 117L109 116L104 113M150 113L147 116C149.952 121.307 146.592 131.414 155 130L155 129L151 129L151 117L155 117L155 116L150 113z"/>
<path style="fill:#677c7b; stroke:none;" d="M26 114L26 117L27 117L26 114z"/>
<path style="fill:#aebab9; stroke:none;" d="M33 114L34 115L33 114z"/>
<path style="fill:#677c7b; stroke:none;" d="M34 114L34 115L37 115L34 114z"/>
<path style="fill:#aebab9; stroke:none;" d="M37 114L38 115L37 114M63 114L63 115L66 115L63 114M83 114L83 115L87 115L86 118L87 118L88 115L83 114M117 114L118 115L117 114z"/>
<path style="fill:#677c7b; stroke:none;" d="M118 114L118 115L121 115L118 114z"/>
<path style="fill:#aebab9; stroke:none;" d="M121.667 114.333L122.333 114.667L121.667 114.333M160 114L160 115L164 116L164 115L160 114M183 114L184 115L183 114z"/>
<path style="fill:#677c7b; stroke:none;" d="M184 114L184 115L187 115L184 114z"/>
<path style="fill:#aebab9; stroke:none;" d="M187 114L188 115L187 114M30 115L31 116L30 115z"/>
<path style="fill:#677c7b; stroke:none;" d="M31 115L31 118L32 118L33 115L31 115z"/>
<path style="fill:#2c4a48; stroke:none;" d="M33 115L33 116C37.1534 117.312 37.7724 119.858 38 124C29.9167 124.096 26.7368 131.928 36 130L36 129L32 130C32.1863 125.936 34.1577 125.293 38 125C37.8829 128.506 38.3345 130.064 42 130C38.6268 123.935 42.0164 115.697 33 115z"/>
<path style="fill:#677c7b; stroke:none;" d="M38 115L39 118L40 118L38 115z"/>
<path style="fill:#aebab9; stroke:none;" d="M39 115L40 116L39 115M42 115L45 118L42 115z"/>
<path style="fill:#677c7b; stroke:none;" d="M43 115L43 116L49 117L43 115z"/>
<path style="fill:#aebab9; stroke:none;" d="M49.3333 115.667L49.6667 116.333L49.3333 115.667M53 115L55 117L53 115z"/>
<path style="fill:#677c7b; stroke:none;" d="M54 115L55 120L56 120L56 116L63 117L54 115z"/>
<path style="fill:#2c4a48; stroke:none;" d="M63 115C65.1992 120.74 65.4331 125.258 63 131L69 131L69 130C65.0442 125.81 66 120.454 66 115L63 115z"/>
<path style="fill:#677c7b; stroke:none;" d="M66 115L66 129L67 129L66 115z"/>
<path style="fill:#aebab9; stroke:none;" d="M80.3333 115.667L80.6667 116.333L80.3333 115.667z"/>
<path style="fill:#677c7b; stroke:none;" d="M81 115L84 118L81 115M86.3333 115.667L86.6667 116.333L86.3333 115.667z"/>
<path style="fill:#aebab9; stroke:none;" d="M100 115L101 116L100 115z"/>
<path style="fill:#677c7b; stroke:none;" d="M101 115L102 116L101 115M106 115L106 116L110 117L106 115z"/>
<path style="fill:#aebab9; stroke:none;" d="M110.333 115.667L110.667 116.333L110.333 115.667M115 115L113 118L115 115z"/>
<path style="fill:#677c7b; stroke:none;" d="M116 115L113 120L114 120L115 118L122 121L122 120L116 120L118 116L116 115z"/>
<path style="fill:#2c4a48; stroke:none;" d="M117 115L117 116L124 120L115 118L114 118C112.045 126.234 114.838 132.099 124 130L124 129C118.733 129.141 115.834 127.345 115 122C123.978 121.993 127.832 115.353 117 115z"/>
<path style="fill:#677c7b; stroke:none;" d="M123 115L124 116L123 115z"/>
<path style="fill:#aebab9; stroke:none;" d="M127 115L133 121L127 115z"/>
<path style="fill:#677c7b; stroke:none;" d="M128 115L132 119L130 116L133 118C134.235 114.725 130.499 115.041 128 115z"/>
<path style="fill:#aebab9; stroke:none;" d="M134 115L135 116L134 115M137 115L139 118L137 115z"/>
<path style="fill:#677c7b; stroke:none;" d="M138 115L138 116L144 116L138 115z"/>
<path style="fill:#aebab9; stroke:none;" d="M146 115L147 116L146 115z"/>
<path style="fill:#677c7b; stroke:none;" d="M147 115L148 116L147 115M152 115L152 116L156 117L152 115z"/>
<path style="fill:#aebab9; stroke:none;" d="M156 115L156 117L158 115L156 115z"/>
<path style="fill:#677c7b; stroke:none;" d="M158.333 115.667L158.667 116.333L158.333 115.667z"/>
<path style="fill:#2c4a48; stroke:none;" d="M159 115C161.536 120.283 163.785 125.314 159 130L159 131L166 131L166 130C162.044 125.81 163 120.454 163 115L159 115z"/>
<path style="fill:#aebab9; stroke:none;" d="M181 115L182 116L181 115z"/>
<path style="fill:#677c7b; stroke:none;" d="M182.333 115.667L182.667 116.333L182.333 115.667z"/>
<path style="fill:#2c4a48; stroke:none;" d="M183 115L183 116L189 120L181 120L182 116L181 116C176.306 124.389 179.645 132.429 190 130L190 129C184.553 129.405 181.749 127.097 180 122C188.707 121.999 194.682 115.645 183 115z"/>
<path style="fill:#677c7b; stroke:none;" d="M188 115L189 116L188 115z"/>
<path style="fill:#aebab9; stroke:none;" d="M189 115L190 116L189 115M28 116L28 119L29 119L28 116z"/>
<path style="fill:#677c7b; stroke:none;" d="M29 116L30 117L29 116z"/>
<path style="fill:#2c4a48; stroke:none;" d="M30 116L29 117L30 120L31 120L32 116L30 116z"/>
<path style="fill:#aebab9; stroke:none;" d="M33 116L33 117L37 118L37 117L33 116z"/>
<path style="fill:#677c7b; stroke:none;" d="M36 116L37 117L36 116z"/>
<path style="fill:#2c4a48; stroke:none;" d="M45 116L50 131L53 131L59 116L50 129L48 116L45 116z"/>
<path style="fill:#aebab9; stroke:none;" d="M60.6667 116.333L61.3333 116.667L60.6667 116.333M67 116L67 129L68 129L67 116z"/>
<path style="fill:#677c7b; stroke:none;" d="M100 116L101 117L100 116z"/>
<path style="fill:#2c4a48; stroke:none;" d="M116 116L115 118L116 116z"/>
<path style="fill:#aebab9; stroke:none;" d="M116 119L120 117L116 119z"/>
<path style="fill:#677c7b; stroke:none;" d="M120 116L121 117L120 116M124 116L125 117L124 116z"/>
<path style="fill:#2c4a48; stroke:none;" d="M130 116C134.112 123.319 132.627 124.357 128 131L133 131L135 124L136 124L138 131L144 131L144 130C138.176 125.149 138.043 122.203 142 116L135 121L130 116z"/>
<path style="fill:#aebab9; stroke:none;" d="M143 116L144 117L143 116z"/>
<path style="fill:#677c7b; stroke:none;" d="M146 116L147 117L146 116M163 116L163 129L164 129L163 116M180 116L181 117L180 116z"/>
<path style="fill:#aebab9; stroke:none;" d="M182 117L182 118L187 118L182 117z"/>
<path style="fill:#677c7b; stroke:none;" d="M186 116L187 117L186 116z"/>
<path style="fill:#aebab9; stroke:none;" d="M190 116L191 121L192 121L190 116M22 117L21 120L22 117M26 117L25 120L26 117M40 117L42 129L40 117M48.3333 117.667L48.6667 118.333L48.3333 117.667M58.3333 117.667L58.6667 118.333L58.3333 117.667M62 117L61 131L69 132L69 131L62 131C64.0676 127.126 65.7195 120.25 62 117z"/>
<path style="fill:#677c7b; stroke:none;" d="M64 117L64 129L65 129L64 117z"/>
<path style="fill:#aebab9; stroke:none;" d="M82 117L79 122L82 117M100 117L100 118L102 130L103 130C103 125.43 104.224 119.739 100 117z"/>
<path style="fill:#677c7b; stroke:none;" d="M102 117L103 118L102 117M105 117L106 118L105 117z"/>
<path style="fill:#aebab9; stroke:none;" d="M106 117L106 118L110 118L106 117z"/>
<path style="fill:#fefdfe; stroke:none;" d="M116 120L122 120C120.002 117.031 118.385 117.632 116 120z"/>
<path style="fill:#aebab9; stroke:none;" d="M121 117L122 120L123 120L121 117z"/>
<path style="fill:#677c7b; stroke:none;" d="M122 117L123 118L122 117z"/>
<path style="fill:#aebab9; stroke:none;" d="M125 117L126 118L125 117M141 117L142 118L141 117M146 117L146 118L148 130L149 130C149 125.43 150.224 119.739 146 117z"/>
<path style="fill:#677c7b; stroke:none;" d="M148 117L149 118L148 117M151 117L152 118L151 117z"/>
<path style="fill:#aebab9; stroke:none;" d="M152 117L152 118L156 118L152 117M159 117L159 130L160 130C161.155 126.092 162.346 119.924 159 117M179 117L178 119L179 117z"/>
<path style="fill:#fefdfe; stroke:none;" d="M182 120L188 120C185.987 117.18 183.927 117.105 182 120z"/>
<path style="fill:#677c7b; stroke:none;" d="M187 117L188 118L187 117M190 117L191 118L190 117M25 118L26 119L25 118M29.3333 118.667L29.6667 119.333L29.3333 118.667z"/>
<path style="fill:#aebab9; stroke:none;" d="M31.3333 118.667L31.6667 119.333L31.3333 118.667z"/>
<path style="fill:#677c7b; stroke:none;" d="M37.3333 118.667L37.6667 119.333L37.3333 118.667M45 118L46 119L45 118M57.3333 118.667L57.6667 119.333L57.3333 118.667z"/>
<path style="fill:#aebab9; stroke:none;" d="M85 118L86 119L85 118M105 118C105.001 123.023 104.043 128.006 110 129L110 130L108 130L108 131L111 130L111 129L106 128L105 118z"/>
<path style="fill:#677c7b; stroke:none;" d="M125 118L124 122L125 122L125 118z"/>
<path style="fill:#aebab9; stroke:none;" d="M134 118L136 120L134 118z"/>
<path style="fill:#677c7b; stroke:none;" d="M138 118L139 119L138 118M140 118L138 121L140 118z"/>
<path style="fill:#aebab9; stroke:none;" d="M151 118C151.001 123.023 150.043 128.006 156 129L156 130L154 130L154 131L157 130L157 129L152 128L151 118z"/>
<path style="fill:#677c7b; stroke:none;" d="M161 118L161 129L162 129L161 118M179 118L180 119L179 118M181 118L182 119L181 118M188 118L189 119L188 118M22 119L23 120L22 119z"/>
<path style="fill:#aebab9; stroke:none;" d="M45.3333 119.667L45.6667 120.333L45.3333 119.667z"/>
<path style="fill:#677c7b; stroke:none;" d="M48.3333 119.667L48.6667 120.333L48.3333 119.667z"/>
<path style="fill:#aebab9; stroke:none;" d="M54.3333 119.667L54.6667 120.333L54.3333 119.667z"/>
<path style="fill:#677c7b; stroke:none;" d="M82 119L83 120L82 119z"/>
<path style="fill:#aebab9; stroke:none;" d="M84 119L85 120L84 119M112.333 119.667L112.667 120.333L112.333 119.667z"/>
<path style="fill:#677c7b; stroke:none;" d="M123 119L124 120L123 119z"/>
<path style="fill:#aebab9; stroke:none;" d="M126 119L127 120L126 119z"/>
<path style="fill:#677c7b; stroke:none;" d="M134 119L135 120L134 119z"/>
<path style="fill:#aebab9; stroke:none;" d="M137 119L138 120L137 119M140 119L141 120L140 119z"/>
<path style="fill:#677c7b; stroke:none;" d="M178.333 119.667L178.667 120.333L178.333 119.667z"/>
<path style="fill:#aebab9; stroke:none;" d="M181 119L182 120L181 119M188 119L189 120L188 119z"/>
<path style="fill:#677c7b; stroke:none;" d="M11 120L12 121L11 120M14 120L15 121L14 120M20 120L21 121L20 120M24 120L25 121L24 120z"/>
<path style="fill:#aebab9; stroke:none;" d="M29.6667 120.333L30.3333 120.667L29.6667 120.333M37 120L31 123L31 124C34.0606 123.9 37.8669 123.86 37 120z"/>
<path style="fill:#677c7b; stroke:none;" d="M46.3333 120.667L46.6667 121.333L46.3333 120.667z"/>
<path style="fill:#aebab9; stroke:none;" d="M49.3333 120.667L49.6667 121.333L49.3333 120.667M57.3333 120.667L57.6667 121.333L57.3333 120.667z"/>
<path style="fill:#677c7b; stroke:none;" d="M81 120L82 121L81 120M83 120L82 122L83 120M135.667 120.333L136.333 120.667L135.667 120.333z"/>
<path style="fill:#aebab9; stroke:none;" d="M139 120L140 121L139 120M177 120L177 126L178 126L177 120z"/>
<path style="fill:#677c7b; stroke:none;" d="M182 120L182 121L188 121L182 120z"/>
<path style="fill:#aebab9; stroke:none;" d="M11 121L11 128L12 128L11 121z"/>
<path style="fill:#677c7b; stroke:none;" d="M22 121L23 122L22 121z"/>
<path style="fill:#aebab9; stroke:none;" d="M23 121L24 122L23 121z"/>
<path style="fill:#677c7b; stroke:none;" d="M54.3333 121.667L54.6667 122.333L54.3333 121.667M56.3333 121.667L56.6667 122.333L56.3333 121.667M80 121L81 122L80 121z"/>
<path style="fill:#aebab9; stroke:none;" d="M83 121L84 122L83 121z"/>
<path style="fill:#677c7b; stroke:none;" d="M112 121L112 126L113 126L112 121z"/>
<path style="fill:#aebab9; stroke:none;" d="M125 121L126 122L125 121z"/>
<path style="fill:#677c7b; stroke:none;" d="M133 121L135 123L133 121z"/>
<path style="fill:#aebab9; stroke:none;" d="M138 121L139 122L138 121M190 121L191 122L190 121z"/>
<path style="fill:#677c7b; stroke:none;" d="M14 122L15 123L14 122z"/>
<path style="fill:#aebab9; stroke:none;" d="M15 122L15 123L23 123L15 122M46.3333 122.667L46.6667 123.333L46.3333 122.667z"/>
<path style="fill:#677c7b; stroke:none;" d="M49.3333 122.667L49.6667 123.333L49.3333 122.667z"/>
<path style="fill:#aebab9; stroke:none;" d="M53 122L53 125L54 125L53 122z"/>
<path style="fill:#677c7b; stroke:none;" d="M78 122L79 123L78 122z"/>
<path style="fill:#aebab9; stroke:none;" d="M82 122L83 123L82 122M115 125L116 125L124 123C120.945 121.24 115.861 120.983 115 125M133 122L130 127L133 122z"/>
<path style="fill:#677c7b; stroke:none;" d="M137 122L140 126L137 122M180 122L180 125L181 125L180 122z"/>
<path style="fill:#aebab9; stroke:none;" d="M181 122L181 123L190 123L181 122M14 123L14 129L15 129L14 123z"/>
<path style="fill:#677c7b; stroke:none;" d="M37 123L38 124L37 123M47.3333 123.667L47.6667 124.333L47.3333 123.667z"/>
<path style="fill:#aebab9; stroke:none;" d="M50.3333 123.667L50.6667 124.333L50.3333 123.667M56.3333 123.667L56.6667 124.333L56.3333 123.667z"/>
<path style="fill:#677c7b; stroke:none;" d="M82 123L83 124L82 123z"/>
<path style="fill:#aebab9; stroke:none;" d="M111 123L112 124L111 123M138 123L139 124L138 123M29 124L28 126L29 124z"/>
<path style="fill:#677c7b; stroke:none;" d="M30 124L31 125L30 124M55.3333 124.667L55.6667 125.333L55.3333 124.667M77 124L76 129L77 129L77 124z"/>
<path style="fill:#aebab9; stroke:none;" d="M78 124L78 125L81 126L78 124z"/>
<path style="fill:#677c7b; stroke:none;" d="M80 124L81 125L80 124z"/>
<path style="fill:#aebab9; stroke:none;" d="M83 124L85 126L83 124z"/>
<path style="fill:#677c7b; stroke:none;" d="M133 124L134 125L133 124M135 124L139 128L135 124z"/>
<path style="fill:#aebab9; stroke:none;" d="M139 124L140 125L139 124z"/>
<path style="fill:#677c7b; stroke:none;" d="M29 125L30 126L29 125M32 125L31 127L32 125z"/>
<path style="fill:#aebab9; stroke:none;" d="M31 129L32 129L37 126C33.8631 124.999 32.5132 126.244 31 129z"/>
<path style="fill:#677c7b; stroke:none;" d="M37 125L36 130L37 130L38 130L37 125z"/>
<path style="fill:#aebab9; stroke:none;" d="M47.3333 125.667L47.6667 126.333L47.3333 125.667z"/>
<path style="fill:#677c7b; stroke:none;" d="M50 125L50 129L51 129L50 125M53.3333 125.667L53.6667 126.333L53.3333 125.667z"/>
<path style="fill:#aebab9; stroke:none;" d="M77 125L77 129L78 129L77 125z"/>
<path style="fill:#677c7b; stroke:none;" d="M83 125L84 126L83 125M115 125L118 129L115 125M132 125L133 126L132 125z"/>
<path style="fill:#aebab9; stroke:none;" d="M134 125L132 129L136 125L134 125z"/>
<path style="fill:#677c7b; stroke:none;" d="M178.333 125.667L178.667 126.333L178.333 125.667z"/>
<path style="fill:#aebab9; stroke:none;" d="M181 125L182 126L181 125z"/>
<path style="fill:#677c7b; stroke:none;" d="M28 126L28 129L29 129L28 126z"/>
<path style="fill:#fefdfe; stroke:none;" d="M32 129L37 126L32 129z"/>
<path style="fill:#677c7b; stroke:none;" d="M48.3333 126.667L48.6667 127.333L48.3333 126.667z"/>
<path style="fill:#aebab9; stroke:none;" d="M52 126L51 129L52 126M55 126L54 130L55 130L55 126z"/>
<path style="fill:#677c7b; stroke:none;" d="M81 126L83 128L81 126M84 126L85 127L84 126z"/>
<path style="fill:#aebab9; stroke:none;" d="M112 126L114 129L112 126M116 126L117 127L116 126z"/>
<path style="fill:#677c7b; stroke:none;" d="M131 126L132 127L131 126M133 126L134 127L133 126z"/>
<path style="fill:#aebab9; stroke:none;" d="M136 126L137 127L136 126M140 126L143 129L140 126z"/>
<path style="fill:#677c7b; stroke:none;" d="M181 126L182 127L181 126M54 127L55 128L54 127z"/>
<path style="fill:#aebab9; stroke:none;" d="M81 127L82 128L81 127M85 127L87 129L85 127z"/>
<path style="fill:#677c7b; stroke:none;" d="M113 127L114 128L113 127z"/>
<path style="fill:#aebab9; stroke:none;" d="M117 127L118 128L117 127z"/>
<path style="fill:#677c7b; stroke:none;" d="M130 127L131 128L130 127M132 127L133 128L132 127z"/>
<path style="fill:#aebab9; stroke:none;" d="M137 127L138 128L137 127z"/>
<path style="fill:#677c7b; stroke:none;" d="M140 127L141 128L140 127z"/>
<path style="fill:#aebab9; stroke:none;" d="M178 127L179 128L178 127M182 127L183 128L182 127z"/>
<path style="fill:#677c7b; stroke:none;" d="M11 128L12 129L11 128z"/>
<path style="fill:#aebab9; stroke:none;" d="M35 128L36 129L35 128M48.3333 128.667L48.6667 129.333L48.3333 128.667z"/>
<path style="fill:#677c7b; stroke:none;" d="M52 128L53 129L52 128z"/>
<path style="fill:#aebab9; stroke:none;" d="M82 128L83 129L82 128z"/>
<path style="fill:#677c7b; stroke:none;" d="M85 128L86 129L85 128M105 128L106 129L105 128z"/>
<path style="fill:#aebab9; stroke:none;" d="M118 128L119 129L118 128M123 128L124 129L123 128z"/>
<path style="fill:#677c7b; stroke:none;" d="M124.333 128.667L124.667 129.333L124.333 128.667z"/>
<path style="fill:#aebab9; stroke:none;" d="M125.333 128.667L125.667 129.333L125.333 128.667M129 128L130 129L129 128M138.333 128.667L138.667 129.333L138.333 128.667z"/>
<path style="fill:#677c7b; stroke:none;" d="M141 128L142 129L141 128M151 128L152 129L151 128z"/>
<path style="fill:#aebab9; stroke:none;" d="M164 128L165 129L164 128z"/>
<path style="fill:#677c7b; stroke:none;" d="M179 128L181 130L179 128M183 128L184 129L183 128z"/>
<path style="fill:#aebab9; stroke:none;" d="M184 128L185 129L184 128M188 128L188 129L192 129L188 128M9 129C9.51378 133.089 14.5345 132 18 132L18 131L9 129z"/>
<path style="fill:#677c7b; stroke:none;" d="M10 129L11 130L10 129M15.6667 129.333L16.3333 129.667L15.6667 129.333z"/>
<path style="fill:#aebab9; stroke:none;" d="M17 129L19 131L19 129L17 129M28 129L29 130L28 129z"/>
<path style="fill:#677c7b; stroke:none;" d="M32.6667 129.333L33.3333 129.667L32.6667 129.333M42 129L41 131L42 129z"/>
<path style="fill:#aebab9; stroke:none;" d="M43 129L44 130L43 129z"/>
<path style="fill:#677c7b; stroke:none;" d="M49.3333 129.667L49.6667 130.333L49.3333 129.667M53.3333 129.667L53.6667 130.333L53.3333 129.667M63 129L64 130L63 129M68 129L69 130L68 129z"/>
<path style="fill:#aebab9; stroke:none;" d="M69.3333 129.667L69.6667 130.333L69.3333 129.667z"/>
<path style="fill:#677c7b; stroke:none;" d="M73 129L74 130L73 129z"/>
<path style="fill:#aebab9; stroke:none;" d="M78 129L79 130L78 129z"/>
<path style="fill:#677c7b; stroke:none;" d="M83 129L85 131L83 129M87.3333 129.667L87.6667 130.333L87.3333 129.667z"/>
<path style="fill:#aebab9; stroke:none;" d="M88.3333 129.667L88.6667 130.333L88.3333 129.667z"/>
<path style="fill:#677c7b; stroke:none;" d="M109 129L110 130L109 129z"/>
<path style="fill:#aebab9; stroke:none;" d="M114 129L115 130L114 129z"/>
<path style="fill:#677c7b; stroke:none;" d="M120.667 129.333L121.333 129.667L120.667 129.333z"/>
<path style="fill:#aebab9; stroke:none;" d="M127 129C127.414 132.297 129.922 131.95 133 132L133 131L127 129z"/>
<path style="fill:#677c7b; stroke:none;" d="M128 129L129 130L128 129z"/>
<path style="fill:#aebab9; stroke:none;" d="M133 129L134 130L133 129z"/>
<path style="fill:#677c7b; stroke:none;" d="M143 129L144 130L143 129z"/>
<path style="fill:#aebab9; stroke:none;" d="M144.333 129.667L144.667 130.333L144.333 129.667z"/>
<path style="fill:#677c7b; stroke:none;" d="M155 129L156 130L155 129M160 129L161 130L160 129M165 129L166 130L165 129z"/>
<path style="fill:#aebab9; stroke:none;" d="M166.333 129.667L166.667 130.333L166.333 129.667z"/>
<path style="fill:#677c7b; stroke:none;" d="M174 129L176 131L174 129z"/>
<path style="fill:#aebab9; stroke:none;" d="M175 129L176 130L175 129M179 129L180 130L179 129z"/>
<path style="fill:#677c7b; stroke:none;" d="M185 129L185 130L188 130L185 129M190 129L191 130L190 129M9 130L10 131L9 130z"/>
<path style="fill:#aebab9; stroke:none;" d="M29 130L30 131L29 130z"/>
<path style="fill:#677c7b; stroke:none;" d="M34 130L35 131L34 130z"/>
<path style="fill:#aebab9; stroke:none;" d="M35 130L36 131L35 130z"/>
<path style="fill:#677c7b; stroke:none;" d="M38 130L39 131L38 130z"/>
<path style="fill:#aebab9; stroke:none;" d="M42 130L43 131L42 130z"/>
<path style="fill:#677c7b; stroke:none;" d="M62 130L63 131L62 130M72 130L73 131L72 130M78 130L79 131L78 130z"/>
<path style="fill:#aebab9; stroke:none;" d="M83 130L84 131L83 130z"/>
<path style="fill:#677c7b; stroke:none;" d="M103 130L104 131L103 130M107 130L108 131L107 130z"/>
<path style="fill:#aebab9; stroke:none;" d="M115 130L116 131L115 130z"/>
<path style="fill:#677c7b; stroke:none;" d="M116 130L117 131L116 130M122 130L123 131L122 130z"/>
<path style="fill:#aebab9; stroke:none;" d="M123.667 130.333L124.333 130.667L123.667 130.333z"/>
<path style="fill:#677c7b; stroke:none;" d="M127 130L128 131L127 130M133 130L134 131L133 130z"/>
<path style="fill:#aebab9; stroke:none;" d="M137 130L138 131L137 130z"/>
<path style="fill:#677c7b; stroke:none;" d="M149 130L150 131L149 130M153 130L154 131L153 130z"/>
<path style="fill:#aebab9; stroke:none;" d="M158 130L159 131L158 130z"/>
<path style="fill:#677c7b; stroke:none;" d="M168 130L169 131L168 130z"/>
<path style="fill:#aebab9; stroke:none;" d="M181 130L182 131L181 130z"/>
<path style="fill:#677c7b; stroke:none;" d="M188 130L189 131L188 130z"/>
<path style="fill:#aebab9; stroke:none;" d="M189 130L190 131L189 130M30.6667 131.333L31.3333 131.667L30.6667 131.333z"/>
<path style="fill:#677c7b; stroke:none;" d="M32 131L33 132L32 131z"/>
<path style="fill:#aebab9; stroke:none;" d="M33.6667 131.333L34.3333 131.667L33.6667 131.333M39.6667 131.333L40.3333 131.667L39.6667 131.333M50 131L50 132L53 132L50 131M84 131L84 132L87 132L84 131M104 131L104 132L107 132L104 131M117 131L117 132L122 132L117 131M138 131L138 132L144 132L138 131M150 131L150 132L153 132L150 131M159 131L159 132L166 132L159 131M168 131L168 132L175 132L168 131M182 131L182 132L188 132L182 131z"/>
</svg>
